<svg xmlns="http://www.w3.org/2000/svg" fill="none" viewBox="0 0 96 96" id="Vitejs--Streamline-Svg-Logos" height="24" width="24">
  <desc>
    Vitejs Streamline Icon: https://streamlinehq.com
  </desc>
  <path fill="url(#a)" d="M94.6298 14.9117 50.5288 93.772c-.9105 1.6282-3.2498 1.6378-4.1741.0175L1.37927 14.9193c-1.006863-1.7657.50297-3.9044 2.50382-3.5467l44.14821 7.8912c.2816.0503.57.0499.8516-.0015l43.225-7.8784c1.9942-.3635 3.5111 1.7587 2.5219 3.5278Z"></path>
  <path fill="url(#b)" d="M69.061 1.02314 36.4249 7.41805c-.5364.1051-.9336.55969-.9659 1.10523L33.4514 42.4296c-.0472.7986.6862 1.4184 1.4656 1.2387l9.0864-2.097c.8501-.1961 1.6183.5527 1.4436 1.4076l-2.6995 13.2192c-.1817.8897.6536 1.6505 1.5224 1.3866l5.6122-1.7051c.87-.2642 1.706.4988 1.522 1.3892L47.114 78.0332c-.2685 1.2988 1.4592 2.0071 2.1797.8935l.4812-.7437 26.5937-53.0724c.4454-.8886-.3226-1.9019-1.2986-1.7135l-9.3528 1.8051c-.879.1694-1.6268-.6491-1.3787-1.509L70.443 2.53134c.2483-.86136-.5022-1.680582-1.382-1.5082Z"></path>
  <defs>
    <linearGradient id="a" x1="-76.685" x2="4679.61" y1="651.533" y2="7110.95" gradientUnits="userSpaceOnUse">
      <stop stop-color="#41d1ff"></stop>
      <stop offset="1" stop-color="#bd34fe"></stop>
    </linearGradient>
    <linearGradient id="b" x1="1900.75" x2="2879.19" y1="176.935" y2="6888.92" gradientUnits="userSpaceOnUse">
      <stop stop-color="#ffea83"></stop>
      <stop offset=".083" stop-color="#ffdd35"></stop>
      <stop offset="1" stop-color="#ffa800"></stop>
    </linearGradient>
  </defs>
</svg>