<svg xmlns="http://www.w3.org/2000/svg" fill="none" viewBox="0 0 24 24" id="Webpack--Streamline-Svg-Logos">
  <desc>
    Webpack Streamline Icon: https://streamlinehq.com
  </desc>
  <path fill="#ffffff" d="m11.99995 0.25 10.384375 5.874025v11.75195L11.99995 23.75 1.6156 17.875975V6.124025L11.99995 0.25Z" stroke-width="0.25"></path>
  <path fill="#8ed6fb" d="m20.53085 17.46835 -8.186 4.63575V18.49895l5.10205 -2.80965 3.08395 1.77905Zm0.560375 -0.5055V7.276025l-2.99385 1.7281V15.23475l2.99385 1.7281Zm-17.653425 0.5055 8.186025 4.631825V18.49505l-5.10205 -2.80575 -3.083975 1.77905Zm-0.56035 -0.5055V7.276025l2.993825 1.7281V15.23475l-2.993825 1.7281Zm0.34875 -10.313825L11.623825 1.8996575V5.387225L6.24355 8.3458l-0.043125 0.0235 -2.974225 -1.720275Zm17.51235 0L12.34485 1.8996575V5.387225l5.37635 2.9625 0.0431 0.0235 2.97425 -1.7242Z" stroke-width="0.25"></path>
  <path fill="#1c78c0" d="m11.623675 17.67625 -5.0315 -2.770475V9.423625l5.0315 2.9037V17.67625Zm0.721025 0 5.031525 -2.76655V9.423625L12.3447 12.327325V17.67625ZM6.929175 8.7888 11.9842 6.0105l5.0511 2.7783L11.9842 11.70425 6.929175 8.7888Z" stroke-width="0.25"></path>
</svg>